# xmcd
#
# Track frame offsets: 
#        150
#        12307
#        23497
#        34100
#        48375
#        64357
#        78625
#        89007
#        100202
#        115100
#        127280
#        141402
#        152717
#        166930
#        179470
#        195792
#        212367
#        224662
#        239990
#        253005
#
# Disc length: 3576 seconds
#
# Revision: 2
# Processed by: cddbd v1.4PL0 Copyright (c) Steve Scherf et al.
# Submitted via: ExactAudioCopy v0.90b3
#
DISCID=260df614
DTITLE=Reba McEntire - My Kind of Country and Have I Got a Deal for You
DYEAR=1900
DGENRE=Country
TTITLE0=How Blue
TTITLE1=That's What He Said
TTITLE2=I Want To Hear It From You
TTITLE3=It's Not Over (If I'm Not Over You)
TTITLE4=Somebody Should Leave
TTITLE5=Everthing But My Heart
TTITLE6=Don't You Believe Him
TTITLE7=Before I Met You
TTITLE8=He's Only Everything
TTITLE9=You've Got Me (Right Where You Want Me)
TTITLE10=I'm In Love All Over
TTITLE11=She's Single Again
TTITLE12=The Great Divide
TTITLE13=Have I Got A Deal For You
TTITLE14=Red Roses (Won't Work Now)
TTITLE15=Only In My Mind
TTITLE16=She's The One Loving You Now
TTITLE17=Whose Heartache Is This Anyway
TTITLE18=I Don't Need Nothin' You Ain't Got
TTITLE19=Don't Forget Your Way Home
EXTD=Special Double CD
EXTT0=
EXTT1=
EXTT2=
EXTT3=
EXTT4=
EXTT5=
EXTT6=
EXTT7=
EXTT8=
EXTT9=
EXTT10=
EXTT11=
EXTT12=
EXTT13=
EXTT14=
EXTT15=
EXTT16=
EXTT17=
EXTT18=
EXTT19=
PLAYORDER=
